<svg id="Capa_1" enable-background="new 0 0 512 512" height="512" viewBox="0 0 512 512" width="512" xmlns="http://www.w3.org/2000/svg"><g><g><path d="m140.7 87.051h-80.048c-2.803 0-5.393 1.495-6.794 3.922l-40.024 69.323c-1.401 2.427-1.401 5.418 0 7.845l40.024 69.323c1.401 2.427 3.991 3.922 6.794 3.922h80.048c2.803 0 5.393-1.495 6.794-3.922l40.024-69.323c1.401-2.427 1.401-5.418 0-7.845l-40.024-69.323c-1.402-2.426-3.991-3.922-6.794-3.922z" fill="#ff8835"/><path d="m451.991 87.051h-80.048c-2.803 0-5.392 1.495-6.794 3.922l-40.024 69.323c-1.401 2.427-1.401 5.418 0 7.845l40.024 69.323c1.401 2.427 3.991 3.922 6.794 3.922h80.048c2.803 0 5.392-1.495 6.794-3.922l40.024-69.323c1.401-2.427 1.401-5.418 0-7.845l-40.024-69.323c-1.401-2.426-3.991-3.922-6.794-3.922z" fill="#ff4343"/><path d="m296.432 177.581h-80.048c-2.803 0-5.393 1.495-6.794 3.922l-40.024 69.323c-1.401 2.427-1.401 5.418 0 7.845l40.024 69.323c1.401 2.427 3.991 3.922 6.794 3.922h80.048c2.803 0 5.393-1.495 6.794-3.922l40.024-69.323c1.401-2.427 1.401-5.418 0-7.845l-40.024-69.323c-1.401-2.427-3.991-3.922-6.794-3.922z" fill="#0396fd"/><path d="m296.432 357.659h-80.048c-2.803 0-5.393 1.495-6.794 3.922l-40.024 69.323c-1.401 2.427-1.401 5.418 0 7.845l40.024 69.323c1.401 2.427 3.991 3.922 6.794 3.922h80.048c2.803 0 5.393-1.495 6.794-3.922l40.024-69.323c1.401-2.427 1.401-5.418 0-7.845l-40.024-69.323c-1.401-2.426-3.991-3.922-6.794-3.922z" fill="#bcf7e7"/><path d="m296.432.004h-80.048c-2.803 0-5.393 1.495-6.794 3.922l-40.023 69.324c-1.401 2.427-1.401 5.418 0 7.845l40.024 69.323c1.401 2.427 3.991 3.922 6.794 3.922h80.048c2.803 0 5.393-1.495 6.794-3.922l40.024-69.323c1.401-2.427 1.401-5.418 0-7.845l-40.025-69.323c-1.401-2.428-3.991-3.923-6.794-3.923z" fill="#bcf7e7"/><path d="m140.053 265.918h-80.048c-2.803 0-5.393 1.495-6.794 3.922l-40.024 69.323c-1.401 2.427-1.401 5.418 0 7.845l40.024 69.323c1.401 2.427 3.991 3.922 6.794 3.922h80.048c2.803 0 5.393-1.495 6.794-3.922l40.024-69.323c1.401-2.427 1.401-5.418 0-7.845l-40.024-69.323c-1.402-2.427-3.992-3.922-6.794-3.922z" fill="#ff4343"/></g><path d="m187.523 168.145-40.031 69.323c-1.395 2.429-3.99 3.917-6.791 3.917h-24.92c2.801 0 5.395-1.488 6.791-3.917l40.031-69.323c1.395-2.429 1.395-5.416 0-7.845l-40.031-69.323c-1.395-2.429-3.99-3.928-6.791-3.928h24.92c2.801 0 5.395 1.499 6.791 3.928l40.031 69.323c1.395 2.429 1.395 5.416 0 7.845z" fill="#ff7117"/><path d="m498.809 168.145-40.021 69.323c-1.406 2.429-3.99 3.917-6.801 3.917h-24.92c2.811 0 5.395-1.488 6.801-3.917l40.021-69.323c1.406-2.429 1.406-5.416 0-7.845l-40.021-69.323c-1.406-2.429-3.99-3.928-6.801-3.928h24.92c2.811 0 5.395 1.499 6.801 3.928l40.021 69.323c1.406 2.429 1.406 5.416 0 7.845z" fill="#d31e4e"/><path d="m343.254 258.667-40.031 69.333c-1.395 2.419-3.99 3.917-6.791 3.917h-24.92c2.801 0 5.395-1.499 6.791-3.917l40.031-69.333c1.395-2.419 1.395-5.416 0-7.845l-40.031-69.323c-1.395-2.419-3.99-3.917-6.791-3.917h24.92c2.801 0 5.395 1.499 6.791 3.917l40.031 69.323c1.395 2.429 1.395 5.426 0 7.845z" fill="#0077f0"/><path d="m343.254 438.749-40.031 69.323c-1.395 2.429-3.99 3.928-6.791 3.928h-24.92c2.801 0 5.395-1.499 6.791-3.928l40.031-69.323c1.395-2.429 1.395-5.416 0-7.845l-40.031-69.323c-1.395-2.429-3.99-3.917-6.791-3.917h24.92c2.801 0 5.395 1.488 6.791 3.917l40.031 69.323c1.395 2.429 1.395 5.416 0 7.845z" fill="#abefd9"/><path d="m343.254 81.096-40.031 69.323c-1.395 2.429-3.99 3.917-6.791 3.917h-24.92c2.801 0 5.395-1.488 6.791-3.917l40.031-69.323c1.395-2.429 1.395-5.416 0-7.845l-40.031-69.323c-1.395-2.429-3.99-3.928-6.791-3.928h24.92c2.801 0 5.395 1.499 6.791 3.928l40.031 69.323c1.395 2.429 1.395 5.416 0 7.845z" fill="#abefd9"/><g fill="#d31e4e"><path d="m186.871 347.008-40.021 69.323c-1.406 2.429-4 3.928-6.801 3.928h-24.92c2.801 0 5.395-1.499 6.801-3.928l40.021-69.323c1.395-2.429 1.395-5.416 0-7.845l-40.021-69.323c-1.406-2.429-4-3.917-6.801-3.917h24.92c2.801 0 5.395 1.488 6.801 3.917l40.021 69.323c1.396 2.429 1.396 5.416 0 7.845z"/><circle cx="62.095" cy="334.929" r="8.275"/><circle cx="86.317" cy="305.09" r="8.275"/><circle cx="434.488" cy="127.588" r="8.275"/></g><circle cx="291.366" cy="265.918" fill="#0077f0" r="8.275"/><circle cx="285.854" cy="233.112" fill="#0077f0" r="8.275"/></g></svg>