<svg x="0" y="0" width="700" height="350" viewBox="0 0 700 350" xmlns="http://www.w3.org/2000/svg" xmlns:xlink="http://www.w3.org/1999/xlink" xmlns:fi="http://pattern.flaticon.com/"><rect x="0px" y="0px" width="100%" height="100%" opacity="1" fill="#ffffff"/><defs><path d="M165,0C74.019,0,0,74.019,0,165s74.019,165,165,165c90.982,0,165-74.019,165-165S255.982,0,165,0z" transform="matrix(0.03030303120613098 0 0 0.03030303120613098 257.5 257.5)" id="L1_48" fill="#225310"/><g transform="matrix(0.13671875 0 0 0.13671875 140 140)" id="L1_49"><path d="m500.856 96.089h-22.912v300.519s-30.804 8.972-103.579-12.96c-49.068-14.788-85.774 3.054-104.483 16.247-3.98 2.806-8.708 7.446-13.577 7.446h-.305-.304c-4.869 0-9.598-4.639-13.577-7.445-18.709-13.193-55.416-31.036-104.484-16.248-72.774 21.932-103.579 12.96-103.579 12.96v-300.519h-22.912c-6.155 0-11.144 4.989-11.144 11.144v313.324c0 6.155 4.99 11.144 11.144 11.144h200.192c5.906 0 11.394 3.305 13.918 8.644 5.443 11.517 17.161 19.486 30.745 19.486s25.302-7.969 30.745-19.486c2.524-5.34 8.012-8.644 13.918-8.644h200.192c6.155 0 11.144-4.989 11.144-11.144v-313.324c.002-6.155-4.988-11.144-11.142-11.144z" fill="#f87c68"/><path d="m57.004 420.556v-22.165c-15.72.321-22.946-1.783-22.946-1.783v-300.519h-22.914c-6.155 0-11.144 4.989-11.144 11.144v313.324c0 6.155 4.989 11.144 11.144 11.144h57.004c-6.155 0-11.144-4.99-11.144-11.145z" fill="#ec625e"/><path d="m471.08 72.106c-14.845 1.191-46.539.761-96.716-14.361-72.774-21.933-118.364 27.913-118.364 27.913l-7.94 10.431v300.19l7.94 10.656v.407h.303c4.87 0 9.599-1.549 13.578-4.355 18.709-13.194 55.415-31.035 104.483-16.247 72.775 21.932 106.67 12.96 106.67 12.96v-318.387c0-5.387-4.584-9.638-9.954-9.207z" fill="#dbedff"/><path d="m286.225 64.285c-19.443 9.588-30.225 21.373-30.225 21.373l-7.94 10.431v300.19l7.94 10.656v.407h.303c4.87 0 9.599-1.549 13.578-4.355 4.451-3.139 9.932-6.538 16.344-9.701z" fill="#b5dcff"/><path d="m445.1 132.951c-.199 0-.399-.007-.6-.023-21.651-1.662-45.998-6.533-72.366-14.48-26.822-8.085-52.776-6.87-77.142 3.604-3.921 1.686-8.464-.128-10.15-4.047-1.685-3.921.127-8.465 4.047-10.15 27.799-11.949 57.306-13.361 87.703-4.201 25.302 7.625 48.548 12.291 69.09 13.868 4.255.326 7.439 4.04 7.112 8.295-.31 4.053-3.695 7.134-7.694 7.134z" fill="#8bcaff"/><path d="m445.1 165.788c-.199 0-.398-.007-.6-.023-21.646-1.66-45.993-6.532-72.366-14.48-26.822-8.084-52.776-6.871-77.142 3.604-3.921 1.685-8.464-.127-10.15-4.047-1.685-3.921.127-8.465 4.047-10.15 27.799-11.949 57.306-13.362 87.703-4.201 25.308 7.627 48.553 12.293 69.089 13.868 4.255.326 7.439 4.039 7.113 8.294-.309 4.054-3.695 7.135-7.694 7.135z" fill="#8bcaff"/><path d="m445.1 329.976c-.199 0-.399-.007-.6-.023-21.652-1.662-45.999-6.534-72.366-14.481-26.821-8.082-52.775-6.869-77.142 3.605-3.921 1.686-8.464-.128-10.15-4.047-1.685-3.921.127-8.465 4.047-10.15 27.799-11.949 57.306-13.363 87.703-4.202 25.302 7.626 48.547 12.292 69.09 13.869 4.255.326 7.439 4.04 7.112 8.295-.31 4.053-3.695 7.134-7.694 7.134z" fill="#8bcaff"/><path d="m445.1 362.814c-.199 0-.399-.007-.6-.023-21.651-1.662-45.998-6.533-72.366-14.48-26.822-8.084-52.776-6.87-77.142 3.604-3.921 1.685-8.464-.128-10.15-4.047-1.685-3.921.127-8.465 4.047-10.15 27.799-11.949 57.306-13.361 87.703-4.201 25.302 7.625 48.548 12.291 69.09 13.868 4.255.326 7.439 4.04 7.112 8.295-.31 4.052-3.695 7.134-7.694 7.134z" fill="#8bcaff"/><path d="m445.1 198.626c-.199 0-.399-.007-.6-.023-21.652-1.662-45.999-6.534-72.366-14.481-26.821-8.082-52.775-6.869-77.142 3.605-3.921 1.685-8.464-.128-10.15-4.047-1.685-3.921.127-8.465 4.047-10.15 27.799-11.949 57.306-13.363 87.703-4.202 25.302 7.626 48.547 12.292 69.09 13.869 4.255.326 7.439 4.04 7.112 8.295-.31 4.053-3.695 7.134-7.694 7.134z" fill="#8bcaff"/><path d="m445.1 264.301c-.198 0-.398-.007-.599-.022-21.646-1.661-45.993-6.533-72.366-14.481-26.822-8.084-52.776-6.87-77.142 3.604-3.921 1.686-8.464-.128-10.15-4.047-1.685-3.921.127-8.465 4.047-10.15 27.799-11.949 57.306-13.362 87.703-4.201 25.308 7.627 48.553 12.293 69.089 13.867 4.255.327 7.439 4.04 7.113 8.295-.31 4.052-3.696 7.135-7.695 7.135z" fill="#8bcaff"/><path d="m445.1 231.464c-.199 0-.399-.007-.6-.023-21.651-1.662-45.998-6.533-72.366-14.48-26.82-8.083-52.774-6.872-77.142 3.604-3.921 1.685-8.464-.128-10.15-4.047-1.685-3.921.127-8.465 4.047-10.15 27.799-11.949 57.306-13.363 87.703-4.201 25.302 7.625 48.548 12.291 69.089 13.868 4.255.326 7.439 4.04 7.112 8.295-.309 4.052-3.694 7.134-7.693 7.134z" fill="#8bcaff"/><path d="m445.1 297.138c-.198 0-.398-.007-.599-.022-21.65-1.661-45.997-6.533-72.366-14.481-26.821-8.083-52.775-6.87-77.142 3.605-3.921 1.686-8.464-.127-10.15-4.047-1.685-3.921.127-8.465 4.047-10.15 27.799-11.949 57.306-13.364 87.703-4.202 25.304 7.626 48.549 12.292 69.089 13.867 4.255.327 7.439 4.04 7.113 8.295-.31 4.053-3.696 7.135-7.695 7.135z" fill="#8bcaff"/><path d="m40.92 72.106c14.845 1.191 46.539.761 96.716-14.361 72.774-21.933 118.364 27.913 118.364 27.913v321.684h-.304c-4.869 0-9.598-1.549-13.578-4.355-18.709-13.194-55.415-31.035-104.483-16.248-72.775 21.932-106.67 12.96-106.67 12.96v-318.386c.001-5.387 4.585-9.638 9.955-9.207z" fill="#dbedff"/><path d="m64.962 72.061c-10.462.711-18.449.493-24.042.045-5.37-.431-9.954 3.82-9.954 9.207v318.386s11.038 2.909 33.996 1.352z" fill="#b5dcff"/><path d="m66.9 132.951c-3.999 0-7.384-3.081-7.695-7.135-.327-4.255 2.858-7.969 7.112-8.295 20.542-1.577 43.787-6.243 69.09-13.868 30.398-9.162 59.905-7.748 87.703 4.201 3.92 1.685 5.732 6.229 4.047 10.15s-6.229 5.731-10.15 4.047c-24.366-10.475-50.32-11.686-77.142-3.604-26.367 7.947-50.714 12.818-72.366 14.48-.2.017-.401.024-.599.024z" fill="#8bcaff"/><path d="m66.9 165.788c-3.999 0-7.385-3.082-7.695-7.136-.326-4.255 2.858-7.968 7.113-8.294 20.537-1.575 43.782-6.241 69.089-13.868 30.398-9.162 59.905-7.748 87.703 4.201 3.92 1.685 5.732 6.229 4.047 10.15s-6.229 5.732-10.15 4.047c-24.366-10.476-50.32-11.685-77.142-3.604-26.373 7.948-50.72 12.82-72.366 14.48-.201.017-.401.024-.599.024z" fill="#8bcaff"/><path d="m66.9 329.976c-3.999 0-7.384-3.082-7.695-7.135-.327-4.255 2.858-7.969 7.112-8.295 20.543-1.577 43.788-6.243 69.089-13.869 30.397-9.16 59.905-7.747 87.703 4.202 3.92 1.685 5.732 6.229 4.047 10.15-1.685 3.92-6.229 5.732-10.15 4.047-24.366-10.474-50.321-11.688-77.142-3.605-26.366 7.947-50.713 12.819-72.366 14.481-.199.017-.4.024-.598.024z" fill="#8bcaff"/><path d="m66.9 362.814c-3.999 0-7.384-3.082-7.695-7.135-.327-4.255 2.858-7.969 7.112-8.295 20.542-1.577 43.787-6.243 69.09-13.868 30.398-9.162 59.905-7.748 87.703 4.201 3.92 1.685 5.732 6.229 4.047 10.15s-6.229 5.731-10.15 4.047c-24.366-10.476-50.32-11.685-77.142-3.604-26.367 7.947-50.714 12.818-72.366 14.48-.2.016-.401.024-.599.024z" fill="#8bcaff"/><path d="m66.9 198.626c-3.999 0-7.384-3.082-7.695-7.135-.327-4.255 2.858-7.969 7.112-8.295 20.543-1.577 43.788-6.243 69.089-13.869 30.397-9.16 59.905-7.747 87.703 4.202 3.92 1.685 5.732 6.229 4.047 10.15-1.685 3.92-6.229 5.732-10.15 4.047-24.366-10.474-50.321-11.688-77.142-3.605-26.366 7.947-50.713 12.819-72.366 14.481-.199.017-.4.024-.598.024z" fill="#8bcaff"/><path d="m66.9 264.301c-3.999 0-7.385-3.082-7.695-7.136-.326-4.255 2.858-7.968 7.113-8.295 20.537-1.574 43.782-6.24 69.089-13.867 30.398-9.163 59.905-7.748 87.703 4.201 3.92 1.685 5.732 6.229 4.047 10.15s-6.229 5.733-10.15 4.047c-24.366-10.476-50.32-11.685-77.142-3.604-26.373 7.948-50.72 12.82-72.366 14.481-.201.016-.401.023-.599.023z" fill="#8bcaff"/><path d="m66.9 231.464c-3.999 0-7.384-3.081-7.695-7.135-.327-4.255 2.858-7.969 7.112-8.295 20.542-1.577 43.787-6.243 69.09-13.868 30.397-9.162 59.905-7.749 87.703 4.201 3.92 1.685 5.732 6.229 4.047 10.15s-6.229 5.732-10.15 4.047c-24.367-10.476-50.321-11.686-77.141-3.604-26.367 7.947-50.715 12.818-72.366 14.48-.201.017-.402.024-.6.024z" fill="#8bcaff"/><path d="m66.9 297.138c-3.999 0-7.385-3.081-7.695-7.136-.326-4.255 2.858-7.968 7.113-8.295 20.54-1.575 43.785-6.241 69.089-13.867 30.397-9.16 59.905-7.747 87.703 4.202 3.92 1.685 5.732 6.229 4.047 10.15s-6.229 5.733-10.15 4.047c-24.366-10.474-50.321-11.687-77.142-3.605-26.369 7.948-50.716 12.82-72.366 14.481-.201.016-.401.023-.599.023z" fill="#8bcaff"/></g><g transform="matrix(0.09765625 0 0 0.09765625 150 325)" id="L1_50"><path d="m57.669 259.312h396.662v60.701h-396.662z" fill="#f69583"/><g><path d="m217.934 478.46h-105.734c-5.69 0-10.302-4.612-10.302-10.302v-128.52h126.338v128.52c0 5.69-4.612 10.302-10.302 10.302z" fill="#ffcec0"/><path d="m399.8 478.46h-105.734c-5.69 0-10.302-4.612-10.302-10.302v-128.52h126.338v128.52c0 5.69-4.612 10.302-10.302 10.302z" fill="#ffcec0"/></g><g><g><g><path d="m78.03 273.015-29.321-80.56c-4.743-13.031-19.151-19.749-32.181-15.007-13.031 4.744-19.75 19.152-15.007 32.183l29.321 80.56z" fill="#fdb0a0"/><path d="m48.71 192.459 29.32 80.557-31.354 11.412-29.32-80.557c-2.552-7.011-7.905-12.199-14.329-14.749 2.812-5.227 7.487-9.481 13.501-11.67 13.034-4.744 27.438 1.973 32.182 15.007z" fill="#f69583"/></g><g><path d="m481.157 290.19 29.321-80.56c4.743-13.031-1.976-27.439-15.006-32.181-13.031-4.743-27.439 1.976-32.181 15.006l-29.321 80.56z" fill="#fdb0a0"/><path d="m510.479 209.634-29.32 80.557-23.595-8.588 29.32-80.557c3.18-8.738 1.208-18.091-4.362-24.723 4.205-.75 8.652-.435 12.949 1.129 13.026 4.741 19.752 19.148 15.008 32.182z" fill="#f69583"/></g></g><g><path d="m446.84 263.782c52.578-52.71 52.541-138.059-.119-190.719-50.466-50.466-130.956-52.602-183.968-6.415-3.855 3.359-9.653 3.359-13.508 0-53.011-46.188-133.502-44.052-183.968 6.415-52.659 52.659-52.696 138.009-.119 190.719l184.289 184.294c3.618 3.618 9.485 3.618 13.103 0z" fill="#fb4a59"/><path d="m446.843 263.779-184.288 184.298c-3.618 3.618-9.493 3.618-13.11 0l-23.036-23.046 176.033-176.032c52.576-52.71 52.534-138.062-.124-190.72-9.451-9.452-19.964-17.213-31.148-23.273 27.654 4.092 54.276 16.78 75.55 38.053 52.658 52.669 52.699 138.01.123 190.72z" fill="#f82f40"/></g><g><path d="m83.844 308.197c-3.383-.49-6.085-3.066-6.736-6.422l-12.893-66.453c-3.018-15.602-19.222-24.889-34.24-19.541-12.207 4.348-19.148 17.265-16.672 29.984l14.302 73.474 6.563 33.713c9.796 50.325 58.534 83.18 108.859 73.384l20.47-3.985c4.356-.848 7.2-5.066 6.352-9.422l-5.447-27.981c-7.807-40.107-40.121-70.893-80.558-76.751z" fill="#ffdfd0"/><path d="m163.493 422.349-17.543 3.415-5.794-29.79c-7.81-40.105-40.125-70.894-80.563-76.746-3.382-.492-6.083-3.069-6.734-6.424l-12.898-66.456c-2.222-11.529-11.666-19.612-22.499-20.884 2.975-4.345 7.252-7.81 12.507-9.679 15.022-5.353 31.229 3.934 34.243 19.534l12.898 66.456c.651 3.355 3.352 5.932 6.734 6.424 40.438 5.852 72.753 36.641 80.553 76.746l5.45 27.976c.85 4.358-1.995 8.58-6.354 9.428z" fill="#ffcec0"/></g><g><path d="m428.156 308.197c3.383-.49 6.085-3.066 6.736-6.422l12.893-66.453c3.018-15.602 19.222-24.889 34.24-19.541 12.207 4.348 19.148 17.265 16.672 29.984l-14.302 73.474-6.563 33.713c-9.796 50.325-58.534 83.18-108.859 73.384l-20.47-3.985c-4.356-.848-7.2-5.066-6.352-9.422l5.447-27.981c7.807-40.107 40.12-70.893 80.558-76.751z" fill="#ffdfd0"/><path d="m498.696 245.761-14.298 73.477-6.567 33.715c-9.796 50.322-58.533 83.176-108.856 73.379l-9.708-1.889c44.421 1.047 84.438-30.006 93.217-75.092l6.557-33.715 14.308-73.467c1.948-9.992-1.928-20.111-9.591-26.081 5.608-2.221 12.047-2.525 18.271-.303 12.204 4.345 19.143 17.263 16.667 29.976z" fill="#ffcec0"/></g></g></g><g transform="matrix(0.05859375 0 0 0.05859375 335 160)" id="L1_51"><path d="m467 0h-422c-24.8125 0-45 20.1875-45 45v300c0 24.8125 20.1875 45 45 45h130.1875l-20 60h-49.1875c-8.285156 0-15 6.714844-15 15s6.714844 15 15 15h300c8.285156 0 15-6.714844 15-15s-6.714844-15-15-15h-49.1875l-20-60h130.1875c24.8125 0 45-20.1875 45-45v-300c0-24.8125-20.1875-45-45-45zm-280.1875 450 20-60h98.375l20 60zm295.1875-105c0 8.269531-6.730469 15-15 15-43.582031 0-377.964844 0-422 0-8.269531 0-15-6.730469-15-15v-15h452zm-318.421875-131.210938-13.644531-13.640624 21.210937-21.214844 13.644531 13.644531c4.835938 4.835937 12.332032 5.789063 18.226563 2.3125 8.429687-4.96875 17.429687-8.714844 26.746094-11.128906 6.617187-1.710938 11.238281-7.683594 11.238281-14.519531v-19.242188h30v19.242188c0 6.835937 4.621094 12.808593 11.238281 14.519531 9.3125 2.414062 18.3125 6.160156 26.742188 11.132812 5.894531 3.472657 13.390625 2.519531 18.226562-2.316406l13.644531-13.644531 21.214844 21.214844-13.644531 13.644531c-4.835937 4.835937-5.789063 12.332031-2.3125 18.222656 4.972656 8.433594 8.714844 17.433594 11.128906 26.746094 1.710938 6.617187 7.683594 11.238281 14.519531 11.238281h19.242188v30h-61.515625c1-4.914062 1.515625-9.941406 1.515625-15 0-41.355469-33.644531-75-75-75s-75 33.644531-75 75c0 5.058594.515625 10.085938 1.515625 15h-61.515625v-30h19.242188c6.835937 0 12.808593-4.621094 14.523437-11.238281 2.410156-9.3125 6.15625-18.3125 11.125-26.746094 3.472656-5.890625 2.523437-13.386719-2.3125-18.226563zm137.421875 71.210938c0 5.136719-.890625 10.210938-2.578125 15h-84.84375c-1.6875-4.789062-2.578125-9.863281-2.578125-15 0-24.8125 20.1875-45 45-45s45 20.1875 45 45zm181 15h-61v-45c0-8.285156-6.714844-15-15-15h-23.171875c-1.554687-4.359375-3.339844-8.644531-5.347656-12.84375l16.40625-16.402344c5.855469-5.859375 5.855469-15.355468-.003907-21.214844l-42.425781-42.425781c-2.8125-2.8125-6.628906-4.390625-10.605469-4.390625-3.976562 0-7.792968 1.578125-10.605468 4.390625l-16.402344 16.40625c-4.199219-2.007812-8.484375-3.792969-12.84375-5.34375v-23.175781c0-8.285156-6.714844-15-15-15h-60c-8.285156 0-15 6.714844-15 15v23.175781c-4.359375 1.550781-8.644531 3.335938-12.84375 5.34375l-16.402344-16.40625c-2.8125-2.8125-6.628906-4.390625-10.605468-4.390625-3.980469 0-7.792969 1.578125-10.609376 4.390625l-42.421874 42.425781c-5.859376 5.859376-5.859376 15.355469 0 21.214844l16.402343 16.40625c-2.007812 4.195313-3.789062 8.480469-5.34375 12.839844h-23.175781c-8.285156 0-15 6.71875-15 15v45h-61v-255c0-8.269531 6.730469-15 15-15h422c8.269531 0 15 6.730469 15 15zm0 0"/><path d="m406 60c-24.8125 0-45 20.1875-45 45s20.1875 45 45 45 45-20.1875 45-45-20.1875-45-45-45zm0 60c-8.269531 0-15-6.730469-15-15s6.730469-15 15-15 15 6.730469 15 15-6.730469 15-15 15zm0 0"/></g><g transform="matrix(0.1764705926179886 0 0 0.1764705926179886 305 305)" id="L1_52"><g><path d="m446.166 67.941c-56.18 0-110.644-19.357-154.224-54.811-21.517-17.506-52.367-17.506-73.884 0-43.579 35.455-98.044 54.811-154.223 54.811-17.543 0-31.764 14.221-31.764 31.764v85.132c0 109.211 49.177 212.617 133.894 281.54l26.147 21.272c36.631 29.802 89.149 29.802 125.78 0l26.147-21.272c84.716-68.922 133.894-172.333 133.894-281.544 0-32.684 0-63.399 0-85.135-.003-17.543-14.224-31.757-31.767-31.757z" fill="#000000"/><path d="m255 481.973c-6.124 0-12.114-2.129-16.865-5.994l-50.009-40.686c-36.527-29.718-66.525-67.904-86.749-110.429s-30.914-89.893-30.914-136.982v-67.558c0-8.173 6.682-15.123 14.844-15.554 55.657-2.943 109.464-23.582 152.828-58.862 4.752-3.866 10.741-5.994 16.865-5.994 6.125 0 12.114 2.128 16.865 5.993 43.366 35.281 97.174 55.92 152.831 58.863 8.16.431 14.841 7.38 14.841 15.552v67.556c0 47.09-10.69 94.458-30.914 136.984-20.224 42.527-50.221 80.713-86.748 110.431l-50.01 40.686c-4.751 3.866-10.74 5.994-16.865 5.994z" fill="#000000"/><path d="m255 463.322c-5.608 0-11.092-1.949-15.442-5.488l-45.789-37.252c-33.445-27.21-60.911-62.174-79.428-101.11s-28.305-82.307-28.305-125.423v-61.857c0-7.483 6.118-13.846 13.591-14.242 50.96-2.695 100.227-21.592 139.931-53.895 4.351-3.539 9.835-5.489 15.442-5.489 5.608 0 11.092 1.949 15.441 5.488 39.706 32.304 88.974 51.201 139.934 53.896 7.472.395 13.589 6.757 13.589 14.239v61.855c0 43.116-9.788 86.487-28.305 125.425s-45.983 73.902-79.428 101.112l-45.79 37.252c-4.349 3.54-9.833 5.489-15.441 5.489z" fill="#000000"/><path d="m477.93 99.698c0-17.543-14.221-31.757-31.764-31.757-56.18 0-110.644-19.357-154.224-54.811-10.759-8.753-23.85-13.13-36.942-13.13v510c22.287 0 44.574-7.45 62.89-22.351l26.147-21.272c84.716-68.922 133.893-172.333 133.894-281.544-.001-32.685-.001-63.4-.001-85.135z" fill="#000000"/></g><path d="m421.426 148.41c-9.991-9.99-26.189-7.942-36.18 2.048l-124.649 124.648c-1.215 1.215-4.649 3.518-5.597 3.518s-2.334-.255-3.55-1.471l-47.78-47.78c-9.991-9.99-25.165-9.99-35.156 0-9.991 9.991-11.015 24.141-1.024 34.132l190.716 190.716c71.129-64.213 113.982-153.998 119.184-249.654z" fill="#000000"/><path d="m344.037 466.376c60.467-49.194 102.822-115.961 122.119-189.864l-115.285-115.284c-24.06-25.412-58.112-39.22-95.87-39.22-71.939-.001-129.961 58.022-129.96 129.961 0 37.758 13.808 71.809 39.221 95.869l138.558 138.558c4.233 4.233 10.983 4.579 15.627.801z" fill="#000000"/><circle cx="255" cy="251" r="132" fill="#000000"/><path d="m361.599 174.105-101.002 101.001c-1.215 1.215-4.649 3.518-5.597 3.518s-2.334-.255-3.55-1.471l-47.78-47.78c-9.991-9.99-25.165-9.99-35.156 0-9.991 9.991-11.015 24.141-1.024 34.132l117.13 117.13c58.643-13.445 102.387-65.947 102.387-128.669 0-29.12-9.437-56.032-25.408-77.861z" fill="#000000"/><path d="m255 327.742c-15.008 0-29.118-5.845-39.73-16.457l-47.78-47.779c-9.991-9.991-9.991-26.189 0-36.18 9.99-9.99 26.188-9.99 36.18 0l47.78 47.78c1.216 1.216 2.602 1.471 3.55 1.471s2.334-.255 3.55-1.471l126.696-126.696c9.991-9.99 26.189-9.99 36.18 0 9.991 9.991 9.991 26.189 0 36.18l-126.696 126.695c-10.612 10.612-24.722 16.457-39.73 16.457z" fill="#000000"/></g></defs><g fi:class="KUsePattern"><pattern id="pattern_L1_48" width="350" height="350" patternUnits="userSpaceOnUse"><use xlink:href="#L1_48" x="-350" y="-350"/><use xlink:href="#L1_48" x="0" y="-350"/><use xlink:href="#L1_48" x="350" y="-350"/><use xlink:href="#L1_48" x="-350" y="0"/><use xlink:href="#L1_48" x="0" y="0"/><use xlink:href="#L1_48" x="350" y="0"/><use xlink:href="#L1_48" x="-350" y="350"/><use xlink:href="#L1_48" x="0" y="350"/><use xlink:href="#L1_48" x="350" y="350"/></pattern><rect x="0" y="0" width="100%" height="100%" fill="url(#pattern_L1_48)"/></g><g fi:class="KUsePattern"><pattern id="pattern_L1_49" width="350" height="350" patternUnits="userSpaceOnUse"><use xlink:href="#L1_49" x="-350" y="-350"/><use xlink:href="#L1_49" x="0" y="-350"/><use xlink:href="#L1_49" x="350" y="-350"/><use xlink:href="#L1_49" x="-350" y="0"/><use xlink:href="#L1_49" x="0" y="0"/><use xlink:href="#L1_49" x="350" y="0"/><use xlink:href="#L1_49" x="-350" y="350"/><use xlink:href="#L1_49" x="0" y="350"/><use xlink:href="#L1_49" x="350" y="350"/></pattern><rect x="0" y="0" width="100%" height="100%" fill="url(#pattern_L1_49)"/></g><g fi:class="KUsePattern"><pattern id="pattern_L1_50" width="350" height="350" patternUnits="userSpaceOnUse"><use xlink:href="#L1_50" x="-350" y="-350"/><use xlink:href="#L1_50" x="0" y="-350"/><use xlink:href="#L1_50" x="350" y="-350"/><use xlink:href="#L1_50" x="-350" y="0"/><use xlink:href="#L1_50" x="0" y="0"/><use xlink:href="#L1_50" x="350" y="0"/><use xlink:href="#L1_50" x="-350" y="350"/><use xlink:href="#L1_50" x="0" y="350"/><use xlink:href="#L1_50" x="350" y="350"/></pattern><rect x="0" y="0" width="100%" height="100%" fill="url(#pattern_L1_50)"/></g><g fi:class="KUsePattern"><pattern id="pattern_L1_51" width="350" height="350" patternUnits="userSpaceOnUse"><use xlink:href="#L1_51" x="-350" y="-350"/><use xlink:href="#L1_51" x="0" y="-350"/><use xlink:href="#L1_51" x="350" y="-350"/><use xlink:href="#L1_51" x="-350" y="0"/><use xlink:href="#L1_51" x="0" y="0"/><use xlink:href="#L1_51" x="350" y="0"/><use xlink:href="#L1_51" x="-350" y="350"/><use xlink:href="#L1_51" x="0" y="350"/><use xlink:href="#L1_51" x="350" y="350"/></pattern><rect x="0" y="0" width="100%" height="100%" fill="url(#pattern_L1_51)"/></g><g fi:class="KUsePattern"><pattern id="pattern_L1_52" width="350" height="350" patternUnits="userSpaceOnUse"><use xlink:href="#L1_52" x="-350" y="-350"/><use xlink:href="#L1_52" x="0" y="-350"/><use xlink:href="#L1_52" x="350" y="-350"/><use xlink:href="#L1_52" x="-350" y="0"/><use xlink:href="#L1_52" x="0" y="0"/><use xlink:href="#L1_52" x="350" y="0"/><use xlink:href="#L1_52" x="-350" y="350"/><use xlink:href="#L1_52" x="0" y="350"/><use xlink:href="#L1_52" x="350" y="350"/></pattern><rect x="0" y="0" width="100%" height="100%" fill="url(#pattern_L1_52)"/></g></svg>